<svg width="20" height="20" viewBox="0 0 20 20" fill="none" xmlns="http://www.w3.org/2000/svg">
<g clip-path="url(#clip0_35_104)">
<rect width="20" height="20" fill="white"/>
<path d="M10.0712 -0.00683594C5.97188 -0.00683594 2.5 3.48504 2.5 7.62066C2.5 11.9519 6.52438 16.3813 9.23125 19.4944C9.24188 19.5069 9.67938 19.9925 10.2181 19.9925H10.2656C10.805 19.9925 11.2394 19.5069 11.25 19.4944C13.79 16.5744 17.5 11.7588 17.5 7.62066C17.5 3.48441 14.7919 -0.00683594 10.0712 -0.00683594ZM10.3219 18.6557C10.3 18.6775 10.2681 18.7019 10.24 18.7225C10.2113 18.7025 10.18 18.6775 10.1569 18.6557L9.83 18.2794C7.26375 15.3357 3.74938 11.3038 3.74938 7.62003C3.74938 4.16254 6.64438 1.24191 10.0706 1.24191C14.3388 1.24191 16.2494 4.44504 16.2494 7.62003C16.2494 10.4163 14.255 14.13 10.3219 18.6557ZM10.0219 3.77754C7.95125 3.77754 6.27187 5.45628 6.27187 7.52753C6.27187 9.59878 7.95125 11.2775 10.0219 11.2775C12.0925 11.2775 13.7719 9.59816 13.7719 7.52753C13.7719 5.45691 12.0931 3.77754 10.0219 3.77754ZM10.0219 10.0275C8.64313 10.0275 7.49312 8.87878 7.49312 7.50003C7.49312 6.12128 8.61438 5.00003 9.99312 5.00003C11.3725 5.00003 12.4931 6.12128 12.4931 7.50003C12.4938 8.87878 11.4012 10.0275 10.0219 10.0275Z" fill="#5A5A5A"/>
</g>
<defs>
<clipPath id="clip0_35_104">
<rect width="20" height="20" fill="white"/>
</clipPath>
</defs>
</svg>
